<svg id="Layer_1" data-name="Layer 1" xmlns="http://www.w3.org/2000/svg" viewBox="0 0 319.42 319.42"><defs><style>.cls-1{fill:#fff;}.cls-2,.cls-3{fill:#231f20;}.cls-2{opacity:0;}</style></defs><circle class="cls-1" cx="159.71" cy="159.71" r="159.71"/><path class="cls-2" d="M244.82,115.61c0,15.24-8.56,28.61-18.32,28.61h-.29c-.27,0-.54,0-.8-.05a7.19,7.19,0,0,1-1.13-.18l-.4-.08h0c-.23,0-.45-.12-.67-.19a7.58,7.58,0,0,1-.8-.28c-.31-.12-.61-.25-.91-.4l-.66-.33h0c-.26-.14-.52-.29-.77-.45a18.39,18.39,0,0,1-3.61-3q-.33-.36-.66-.75c-.22-.25-.44-.52-.65-.79s-.42-.55-.62-.83c-3.83-5.32-6.32-13-6.32-21.22s2.49-15.9,6.32-21.23c3.26-4.55,7.51-7.39,12-7.39h0C236.26,87,244.82,100.36,244.82,115.61Z"/><path class="cls-2" d="M244.82,203.84c0,15.24-8.56,28.61-18.32,28.61h-.29c-.27,0-.54,0-.8-.05h-.07c-.26,0-.51-.06-.77-.11l-.45-.09-.22-.05a.79.79,0,0,1-.22-.06q-.31-.07-.63-.18a10.93,10.93,0,0,1-1.3-.51l-.28-.13a18.85,18.85,0,0,1-7-6.19c-3.83-5.32-6.32-13-6.32-21.22s2.49-15.9,6.32-21.23c3.26-4.55,7.51-7.39,12-7.39h0C236.26,175.22,244.82,188.59,244.82,203.84Z"/><rect class="cls-3" x="141.04" y="163.21" width="12" height="0.01"/><rect class="cls-3" x="141.04" y="163.21" width="12" height="0.01"/><path class="cls-3" d="M226.49,144.21h0Z"/><path class="cls-3" d="M226.49,232.44h0Z"/><path class="cls-3" d="M226.5,163.22H186.15v-7H226.5c16.75,0,30.32-18.18,30.32-40.61S243.25,75,226.5,75H165V87H205c-5.45,7.34-8.81,17.46-8.81,28.62s3.36,21.26,8.79,28.6H153V75H141c0,6.08-5.18,11.69-12.76,15.06v12.88A43.54,43.54,0,0,0,141,96.51v47.7H116.28V90h-36v11H62.6v43.86H80.28v11.28h83.88v7H80.1v12H62.6v43.85H80.1v10.09h36.18V175.22H141v47.69a43.54,43.54,0,0,0-12.76-6.41v12.88c7.58,3.37,12.76,9,12.76,15.06h12V175.22H205c-5.45,7.34-8.81,17.45-8.81,28.62s3.36,21.26,8.79,28.6H165v12H226.5c16.75,0,30.32-18.18,30.32-40.61S243.25,163.22,226.5,163.22Zm-12-68.84c3.26-4.55,7.51-7.39,12-7.39h0c9.76,0,18.32,13.37,18.32,28.62s-8.56,28.61-18.32,28.61h-.29a10.19,10.19,0,0,1-1.93-.23l-.4-.08h0c-.23,0-.45-.12-.67-.19a7.58,7.58,0,0,1-.8-.28c-.31-.12-.61-.25-.91-.4l-.66-.33h0c-.26-.14-.52-.29-.77-.45a18.39,18.39,0,0,1-3.61-3q-.33-.36-.66-.75c-.22-.25-.44-.52-.65-.79s-.42-.55-.62-.83c-3.83-5.32-6.32-13-6.32-21.22S210.66,99.71,214.49,94.38ZM104.28,144.21h-12V102h12Zm0,72.95H92.1V175.22h12.18ZM226.5,232.45h-.29a7.16,7.16,0,0,1-.8-.05h-.07a6.8,6.8,0,0,1-.77-.11l-.45-.09-.22-.05a.79.79,0,0,1-.22-.06q-.31-.07-.63-.18a10.93,10.93,0,0,1-1.3-.51,1.75,1.75,0,0,1-.28-.13,18.85,18.85,0,0,1-7-6.19c-3.83-5.32-6.32-13-6.32-21.22s2.49-15.9,6.32-21.23c3.26-4.55,7.51-7.39,12-7.39h0c9.76,0,18.32,13.37,18.32,28.62S236.26,232.45,226.5,232.45Z"/><rect class="cls-3" x="104.28" y="229.15" width="11.82" height="0.01"/></svg>