<svg id="Layer_1" data-name="Layer 1" xmlns="http://www.w3.org/2000/svg" viewBox="0 0 194.21 169.47"><defs><style>.cls-1,.cls-2{fill:#231f20;}.cls-1{opacity:0;}</style></defs><path class="cls-1" d="M182.22,40.63c0,15.24-8.56,28.61-18.32,28.61h-.29c-.27,0-.54,0-.8,0a7.19,7.19,0,0,1-1.13-.18l-.4-.08h0c-.23,0-.45-.12-.67-.19a7.58,7.58,0,0,1-.8-.28c-.31-.12-.61-.25-.91-.4s-.44-.21-.66-.33h0c-.26-.14-.52-.29-.77-.45a18.39,18.39,0,0,1-3.61-3l-.66-.75c-.22-.25-.44-.52-.65-.79s-.42-.55-.62-.83c-3.83-5.32-6.32-13-6.32-21.22s2.49-15.9,6.32-21.23c3.26-4.55,7.51-7.39,12-7.39h0C173.66,12,182.22,25.38,182.22,40.63Z"/><path class="cls-1" d="M182.22,128.86c0,15.24-8.56,28.61-18.32,28.61h-.29c-.27,0-.54,0-.8-.05h-.07c-.26,0-.51-.06-.77-.11a3.58,3.58,0,0,1-.45-.09l-.22,0a.79.79,0,0,1-.22-.06l-.63-.18a10.93,10.93,0,0,1-1.3-.51l-.28-.13a18.85,18.85,0,0,1-7-6.19c-3.83-5.32-6.32-13-6.32-21.22s2.49-15.9,6.32-21.23c3.26-4.55,7.51-7.39,12-7.39h0C173.66,100.24,182.22,113.61,182.22,128.86Z"/><rect class="cls-2" x="78.44" y="88.23" width="12" height="0.01"/><rect class="cls-2" x="78.44" y="88.23" width="12" height="0.01"/><path class="cls-2" d="M163.89,69.23h0Z"/><path class="cls-2" d="M163.89,157.46h0Z"/><path class="cls-2" d="M163.9,88.24H123.55v-7H163.9c16.75,0,30.32-18.18,30.32-40.61S180.65,0,163.9,0H102.44V12h39.94c-5.45,7.34-8.81,17.46-8.81,28.62s3.36,21.26,8.79,28.6H90.44V0h-12c0,6.08-5.18,11.69-12.76,15.06V27.94a43.54,43.54,0,0,0,12.76-6.41v47.7H53.68V15h-36V26.09H0V70H17.68V81.23h83.88v7H17.5v12H0v43.85H17.5v10.09H53.68V100.24H78.44v47.69a43.54,43.54,0,0,0-12.76-6.41V154.4c7.58,3.37,12.76,9,12.76,15.06h12V100.24h51.94c-5.45,7.34-8.81,17.45-8.81,28.62s3.36,21.26,8.79,28.6H102.44v12H163.9c16.75,0,30.32-18.18,30.32-40.61S180.65,88.24,163.9,88.24Zm-12-68.84c3.26-4.55,7.51-7.39,12-7.39h0c9.76,0,18.32,13.37,18.32,28.62s-8.56,28.61-18.32,28.61h-.29a10.19,10.19,0,0,1-1.93-.23l-.4-.08h0c-.23,0-.45-.12-.67-.19a7.58,7.58,0,0,1-.8-.28c-.31-.12-.61-.25-.91-.4s-.44-.21-.66-.33h0c-.26-.14-.52-.29-.77-.45a18.39,18.39,0,0,1-3.61-3l-.66-.75c-.22-.25-.44-.52-.65-.79s-.42-.55-.62-.83c-3.83-5.32-6.32-13-6.32-21.22S148.06,24.73,151.89,19.4ZM41.68,69.23h-12V27h12Zm0,73H29.5V100.24H41.68ZM163.9,157.47h-.29a7.16,7.16,0,0,1-.8-.05h-.07a6.8,6.8,0,0,1-.77-.11,3.58,3.58,0,0,1-.45-.09l-.22,0a.79.79,0,0,1-.22-.06l-.63-.18a10.93,10.93,0,0,1-1.3-.51,1.75,1.75,0,0,1-.28-.13,18.85,18.85,0,0,1-7-6.19c-3.83-5.32-6.32-13-6.32-21.22s2.49-15.9,6.32-21.23c3.26-4.55,7.51-7.39,12-7.39h0c9.76,0,18.32,13.37,18.32,28.62S173.66,157.47,163.9,157.47Z"/><rect class="cls-2" x="41.68" y="154.17" width="11.82" height="0.01"/></svg>